<?xml version="1.0" standalone="no"?>
<!DOCTYPE svg PUBLIC "-//W3C//DTD SVG 20010904//EN"
 "http://www.w3.org/TR/2001/REC-SVG-20010904/DTD/svg10.dtd">
<svg version="1.0" xmlns="http://www.w3.org/2000/svg"
 width="1920.000000pt" height="1080.000000pt" viewBox="0 0 1920.000000 1080.000000"
 preserveAspectRatio="xMidYMid meet">

<g transform="translate(0.000000,1080.000000) scale(0.100000,-0.100000)"
fill="#000000" stroke="none">
<path d="M13125 9289 c-298 -29 -642 -183 -935 -420 -102 -83 -305 -283 -392
-389 -186 -225 -353 -471 -448 -662 -81 -163 -112 -270 -108 -365 3 -62 5 -68
26 -71 12 -2 42 3 65 12 23 8 67 20 97 26 l56 10 11 63 c8 39 9 65 3 71 -6 6
-10 18 -10 27 0 22 116 239 171 321 133 196 360 455 542 618 353 316 614 470
937 554 l55 14 -45 4 -45 3 72 18 c157 38 366 13 504 -59 77 -41 175 -126 220
-190 82 -119 148 -300 193 -524 2 -14 2 4 -1 40 -25 303 -225 656 -446 789
-151 89 -334 128 -522 110z m-275 -188 c0 -4 -30 -23 -67 -42 -67 -34 -163
-90 -278 -163 -165 -105 -226 -145 -287 -188 -66 -47 -91 -51 -45 -7 32 30
254 200 302 230 46 29 246 129 266 133 8 2 34 13 59 24 52 25 50 24 50 13z"/>
<path d="M13865 9033 c16 -29 31 -50 33 -49 7 7 -26 72 -43 86 -14 11 -11 1
10 -37z"/>
<path d="M9112 9020 c0 -14 2 -19 5 -12 2 6 2 18 0 25 -3 6 -5 1 -5 -13z"/>
<path d="M8998 8717 c-96 -167 -258 -330 -462 -465 -131 -87 -381 -220 -606
-322 -173 -79 -499 -243 -619 -312 -341 -196 -675 -469 -839 -687 -78 -103
-163 -275 -197 -400 -28 -99 -63 -179 -89 -200 -9 -8 -16 -17 -16 -22 0 -11
97 -102 121 -113 10 -5 19 -15 19 -23 0 -19 76 -50 195 -80 87 -22 113 -25
205 -19 58 3 143 12 189 21 47 8 86 13 88 11 2 -2 -47 -17 -109 -34 -329 -91
-527 -65 -690 86 -36 34 -68 62 -72 62 -3 0 -6 -10 -6 -22 0 -35 101 -125 184
-163 109 -51 151 -58 289 -52 197 9 380 55 771 193 114 41 213 71 219 67 6 -4
7 -1 2 7 -6 10 -3 12 13 8 12 -4 20 -3 17 2 -7 11 113 53 127 44 6 -4 8 -3 5
3 -3 5 35 27 84 48 49 21 92 42 95 47 8 12 -19 10 -66 -7 -95 -34 -57 -11 50
29 111 42 160 63 575 249 173 77 235 101 235 92 0 -2 -88 -48 -195 -101 -107
-54 -193 -99 -191 -102 3 -2 22 5 43 16 101 52 115 53 135 5 7 -15 13 -29 14
-31 1 -2 59 38 129 90 70 51 137 99 148 107 73 49 -143 -135 -393 -334 -121
-96 -272 -221 -337 -278 -255 -225 -651 -657 -610 -665 30 -6 96 38 214 141
248 217 659 546 833 667 125 86 164 118 335 270 224 198 442 408 474 457 28
42 41 93 24 93 -3 0 -40 -19 -82 -41 -42 -23 -73 -39 -70 -35 18 19 155 97
173 99 36 3 24 -54 -26 -130 -66 -102 -138 -184 -413 -473 -301 -316 -378
-404 -777 -882 -631 -758 -799 -1008 -799 -1186 0 -97 -20 -179 -82 -337 -92
-231 -109 -309 -114 -522 -4 -145 -8 -183 -19 -183 -7 0 -23 -18 -34 -40 -11
-22 -23 -40 -26 -40 -2 0 -16 7 -30 16 -23 16 -26 16 -48 -5 -12 -11 -27 -21
-33 -21 -6 0 -19 -12 -28 -27 -10 -16 -24 -32 -32 -36 -7 -5 -11 -12 -8 -17 3
-5 1 -11 -5 -15 -18 -11 -10 -60 15 -95 41 -55 28 -68 -23 -25 -46 39 -48 14
-5 -67 71 -137 306 -346 483 -430 51 -24 131 -47 120 -35 -3 3 -52 53 -109
111 -57 58 -100 106 -95 106 5 0 50 -34 99 -76 186 -155 283 -232 342 -267
103 -62 353 -172 338 -147 -3 4 -39 22 -81 40 -163 68 -249 124 -352 229 -123
125 -209 260 -256 403 -29 86 -34 138 -12 138 27 0 56 -36 87 -110 40 -96 54
-110 46 -48 -4 26 -2 59 3 73 12 31 45 33 60 4 7 -13 17 -18 27 -15 9 4 24 -1
35 -10 10 -10 20 -15 23 -13 2 3 -3 61 -11 130 -13 98 -15 165 -9 319 5 107 9
234 11 281 2 97 26 193 80 331 76 193 166 349 248 428 25 24 46 40 46 36 0 -5
7 -2 16 5 9 7 21 14 28 16 6 1 45 14 86 27 78 25 270 72 330 81 19 3 72 15
117 25 45 11 104 22 130 24 27 3 98 12 158 21 105 15 234 26 395 32 168 6 520
9 520 4 0 -4 28 -7 63 -8 72 -2 213 -41 309 -85 78 -35 113 -29 46 9 -179 103
-427 141 -806 123 -512 -24 -732 -50 -1112 -131 -205 -44 -281 -64 -352 -94
-13 -5 -18 -2 -18 9 0 20 29 33 193 86 221 71 525 135 712 150 443 37 919 49
1100 29 97 -11 212 -48 325 -104 95 -48 106 -58 156 -141 47 -78 40 -94 -33
-67 -12 5 -2 -59 18 -109 12 -30 39 -38 39 -12 0 8 5 24 11 35 10 20 11 20 24
2 29 -37 11 -158 -23 -158 -17 0 -32 -25 -32 -52 0 -33 20 -28 33 7 15 40 27
38 27 -5 0 -37 9 -42 40 -25 16 8 18 8 14 -5 -4 -10 0 -15 14 -15 12 0 24 -5
28 -11 4 -8 26 -9 65 -5 33 4 59 5 59 2 0 -10 -133 -46 -172 -46 -21 0 -53 7
-70 16 -23 12 -29 13 -26 2 14 -42 136 -54 239 -25 30 9 69 19 86 22 18 3 55
14 83 25 28 11 63 22 79 25 16 3 50 14 76 25 26 11 51 18 56 14 5 -3 9 -1 9 5
0 6 7 8 15 5 8 -4 15 -1 15 7 0 7 3 10 6 6 4 -3 22 0 41 8 19 8 39 12 44 9 5
-3 9 -1 9 5 0 6 7 7 17 4 12 -5 14 -3 8 7 -6 10 -4 12 8 7 9 -3 32 0 50 8 19
8 37 12 39 9 3 -2 24 3 48 11 23 8 52 15 63 15 22 0 79 -54 69 -66 -14 -14 95
63 118 84 13 12 26 19 29 17 9 -10 -102 -115 -234 -224 -147 -119 -329 -296
-368 -356 -28 -43 -30 -78 -4 -83 19 -4 103 38 182 91 134 90 413 305 536 414
207 182 240 222 224 272 -8 28 -57 28 -121 1 -26 -11 -49 -19 -51 -17 -2 2 48
28 112 57 124 58 136 72 90 108 -50 39 -137 45 -552 39 -213 -4 -428 -12 -478
-17 -49 -6 -115 -13 -145 -16 -30 -3 -72 -10 -92 -15 -36 -9 -40 -8 -69 25
-52 60 -149 127 -267 184 -164 79 -250 100 -482 118 -107 8 -235 19 -284 25
-134 15 -424 12 -561 -6 -179 -24 -288 -50 -525 -126 -258 -84 -373 -115 -460
-124 -36 -4 -85 -14 -110 -21 -54 -16 -90 -18 -90 -4 0 22 138 146 189 170 45
20 54 22 62 10 8 -11 12 -12 15 -3 3 7 18 31 34 55 17 24 30 56 30 71 0 42 70
176 160 307 129 187 281 418 462 700 316 493 370 583 507 857 122 244 147 362
81 371 -14 2 -35 13 -49 23 -22 17 -26 18 -33 4 -6 -9 -23 -15 -44 -15 -155 0
-631 -155 -1144 -372 -129 -55 -388 -164 -575 -243 -187 -79 -392 -167 -455
-195 -460 -207 -715 -261 -764 -161 -13 27 -11 61 4 61 5 0 17 14 26 32 9 18
27 41 40 51 13 10 24 24 24 31 0 8 28 30 63 50 65 38 127 112 127 152 0 97
140 279 365 473 126 109 245 204 245 196 0 -4 -10 -15 -22 -26 -20 -16 -20
-18 -5 -19 9 0 17 3 17 8 0 4 9 12 19 17 11 6 57 35 103 66 131 88 295 191
435 272 432 250 867 548 984 673 41 44 129 171 129 186 0 6 10 24 23 41 39 56
131 226 125 233 -2 2 -20 -25 -40 -59z m348 -1506 c-3 -5 -34 -9 -68 -9 -52 1
-57 2 -28 8 51 11 102 11 96 1z m-177 -21 c-19 -5 -55 -27 -79 -49 -28 -25
-147 -94 -315 -182 -148 -78 -331 -176 -405 -217 -297 -165 -475 -246 -875
-401 -44 -18 -91 -38 -105 -46 l-25 -14 30 -1 c17 0 55 7 85 15 57 15 77 18
69 10 -6 -5 -314 -100 -394 -121 -82 -22 -213 -44 -256 -44 -19 0 -44 6 -54
14 -18 13 -17 14 6 29 13 9 80 31 149 51 140 39 497 161 665 226 123 48 571
272 740 370 61 35 197 106 303 157 122 59 192 98 192 108 0 8 18 24 40 35 47
24 204 69 240 68 19 0 16 -2 -11 -8z m131 -29 c0 -12 -29 -35 -36 -28 -11 10
5 37 21 37 8 0 15 -4 15 -9z m-130 -146 c0 -2 -10 -9 -22 -15 -22 -11 -22 -10
-4 4 21 17 26 19 26 11z m-56 -387 c-20 -35 -68 -97 -72 -94 -4 4 69 106 76
106 2 0 0 -6 -4 -12z m-1427 -284 c-3 -3 -12 -4 -19 -1 -8 3 -5 6 6 6 11 1 17
-2 13 -5z m4153 -1734 c25 -13 16 -35 -25 -60 -39 -24 -45 -25 -45 -5 0 23
-35 19 -207 -25 -326 -84 -673 -198 -673 -221 0 -12 8 -11 120 5 52 8 96 13
97 12 6 -5 -363 -97 -388 -96 -22 0 -26 5 -26 25 0 60 170 132 598 255 359
104 506 133 549 110z m-1240 -41 c18 -33 -35 -169 -61 -154 -5 4 -9 44 -9 91
l0 84 30 0 c19 0 33 -7 40 -21z m950 -170 c-14 -6 -47 -15 -75 -20 -27 -5 -58
-12 -69 -15 -11 -4 -16 -2 -12 4 3 6 -2 9 -11 6 -10 -2 -71 -15 -136 -30 -65
-14 -120 -24 -122 -22 -5 4 243 65 320 79 22 3 60 7 85 7 40 1 42 0 20 -9z
m-180 -48 c-8 -5 -26 -11 -40 -15 -21 -5 -20 -3 5 9 32 15 60 20 35 6z m-3855
-396 c-25 -91 -49 -182 -52 -201 -5 -31 -23 -59 -23 -36 0 55 58 293 90 366
38 90 32 39 -15 -129z"/>
<path d="M14102 8300 c0 -14 2 -19 5 -12 2 6 2 18 0 25 -3 6 -5 1 -5 -13z"/>
<path d="M8840 7353 c-83 -11 -389 -76 -550 -117 -396 -101 -823 -265 -1284
-494 -147 -73 -278 -132 -290 -131 -38 3 -43 -1 -50 -31 -5 -27 -9 -30 -31
-24 -21 5 -32 0 -58 -28 -26 -28 -117 -189 -117 -208 0 -9 112 -1 149 11 50
16 277 135 331 174 83 60 184 118 335 193 208 103 676 302 826 350 128 42 183
56 294 77 103 19 239 48 280 59 60 18 219 48 258 50 15 0 27 5 27 11 0 5 5 4
11 -2 15 -15 144 18 145 38 1 28 -16 46 -57 58 -46 14 -164 22 -219 14z"/>
<path d="M12280 7315 c-120 -41 -343 -98 -444 -116 -138 -23 -247 0 -361 77
l-37 25 7 -28 c3 -15 26 -49 50 -74 45 -48 58 -78 59 -135 1 -28 3 -31 20 -22
12 7 16 7 12 0 -3 -5 1 -13 10 -16 26 -10 171 -7 201 5 15 6 37 13 48 15 11 2
31 12 45 22 27 19 60 36 155 75 33 14 102 46 154 71 52 25 101 46 109 46 8 0
31 10 51 23 19 12 44 27 55 32 10 6 18 15 18 20 -2 20 -50 14 -152 -20z"/>
<path d="M12345 7238 c-370 -264 -493 -329 -865 -456 -198 -67 -374 -137 -440
-174 -74 -41 -192 -131 -329 -252 -285 -252 -333 -294 -446 -385 -257 -206
-634 -463 -855 -581 -123 -65 -258 -149 -302 -188 -30 -25 -21 -35 25 -28 23
3 87 11 142 16 55 5 122 12 149 16 l49 7 -24 -27 c-13 -16 -44 -38 -68 -50
l-43 -22 28 -18 c48 -32 144 -47 364 -56 259 -10 331 -23 610 -106 301 -90
311 -92 345 -98 144 -27 215 -39 240 -42 17 -1 48 -5 70 -9 85 -11 314 -30
550 -45 88 -6 180 -13 204 -16 70 -10 41 12 -40 31 -39 8 -110 35 -157 59
-201 100 -519 180 -1072 270 -118 19 -269 42 -335 51 -161 21 -379 56 -384 61
-2 2 30 4 73 4 72 0 76 1 61 16 -12 13 -15 26 -9 58 7 44 21 59 72 76 17 7 32
16 32 21 0 6 4 8 9 5 12 -8 42 4 36 14 -6 9 25 23 33 15 3 -3 -1 -5 -8 -5 -7
0 -11 -2 -8 -5 9 -10 38 7 31 18 -3 6 -1 7 6 3 6 -4 18 -2 26 4 8 6 20 8 26 4
8 -5 9 -3 4 6 -6 10 -4 12 9 7 9 -4 15 -3 12 2 -7 11 22 23 35 15 5 -3 9 -1 9
4 0 13 59 34 73 25 6 -4 7 -1 2 7 -6 10 -4 12 9 7 10 -4 15 -3 11 3 -5 9 8 12
31 9 4 0 10 4 13 9 11 17 71 43 83 36 6 -4 8 -3 5 3 -8 12 81 56 95 47 6 -4 8
-3 5 3 -8 12 81 56 95 47 6 -4 8 -3 5 3 -3 5 47 39 111 75 64 37 175 103 246
147 70 44 132 78 137 75 5 -3 8 -1 7 4 -2 6 61 55 140 111 447 315 844 660
1035 901 72 91 142 220 153 285 3 22 13 47 21 57 38 44 -15 16 -142 -74z
m-358 -460 c-146 -177 -644 -593 -902 -753 -58 -36 -59 -37 -30 -7 100 100
236 217 411 352 172 132 258 202 398 320 16 14 57 51 90 82 34 31 63 55 65 53
2 -3 -12 -24 -32 -47z"/>
<path d="M6698 6760 c-33 -56 -43 -95 -28 -105 17 -11 102 24 93 38 -5 7 -15
35 -23 62 l-16 50 -26 -45z"/>
<path d="M8274 6544 c-18 -14 -18 -14 6 -3 31 14 36 19 24 19 -6 0 -19 -7 -30
-16z"/>
<path d="M8174 6494 c-18 -14 -18 -15 4 -4 12 6 22 13 22 15 0 8 -5 6 -26 -11z"/>
<path d="M8075 6450 c-3 -6 1 -7 9 -4 18 7 21 14 7 14 -6 0 -13 -4 -16 -10z"/>
<path d="M10153 6413 c-7 -3 -74 -86 -150 -186 -224 -298 -281 -366 -407 -492
-221 -220 -454 -402 -731 -573 -222 -136 -466 -242 -557 -242 -19 0 -39 -9
-52 -23 -16 -17 -38 -26 -76 -30 -60 -7 -108 -42 -97 -71 11 -29 96 -16 269
40 154 51 368 160 542 278 185 126 679 493 761 567 71 64 192 196 268 294 157
202 292 459 230 438z"/>
<path d="M6001 6391 c-27 -17 -5 -77 41 -110 23 -17 45 -31 50 -31 4 0 14 14
23 30 16 31 7 70 -16 70 -6 0 -25 11 -43 25 -37 28 -36 28 -55 16z"/>
<path d="M12183 4422 l2 -74 -40 -31 c-62 -48 -138 -131 -245 -267 -54 -69
-167 -204 -251 -300 -208 -237 -268 -312 -370 -468 -176 -268 -301 -578 -354
-882 -15 -85 -32 -161 -37 -167 -6 -7 -19 -13 -29 -13 -12 0 -27 -21 -49 -67
-28 -58 -31 -74 -25 -117 13 -104 142 -256 339 -403 119 -89 146 -103 256
-136 136 -41 205 -50 375 -50 293 -1 599 74 1050 256 159 64 555 257 601 292
10 8 -67 -28 -173 -80 -281 -138 -431 -201 -673 -282 -625 -207 -1093 -186
-1326 59 -74 78 -133 195 -119 239 6 17 12 20 38 15 96 -19 106 -25 132 -76
13 -27 30 -52 35 -55 20 -12 22 3 5 29 -14 21 -15 29 -5 41 9 11 11 33 6 73
-12 104 10 280 47 384 75 206 244 556 267 550 6 -1 9 2 5 8 -8 12 28 76 228
410 181 302 253 433 296 540 49 123 101 315 101 371 0 88 -20 182 -45 209 -12
14 -27 34 -33 45 -9 16 -10 4 -9 -53z"/>
<path d="M6541 3624 c-3 -137 145 -498 278 -677 105 -143 180 -217 388 -383
84 -67 436 -264 449 -251 2 2 -52 34 -121 70 -387 205 -694 492 -824 768 -22
46 -43 95 -47 109 l-7 25 21 -25 c27 -31 27 -23 1 76 -25 99 -86 252 -109 279
-10 11 -20 27 -23 35 -3 8 -6 -4 -6 -26z"/>
<path d="M8930 2841 c-19 -12 -51 -28 -71 -37 -24 -10 -70 -54 -136 -132 -124
-146 -249 -260 -333 -303 -61 -32 -63 -34 -35 -37 59 -7 177 43 246 105 22 20
68 73 104 118 74 95 190 205 216 205 12 0 19 -9 21 -31 l3 -30 43 37 c38 32
48 36 70 28 20 -7 28 -17 30 -41 3 -30 4 -31 43 -26 44 6 53 -11 21 -40 -23
-21 -41 -21 -62 -2 -15 13 -22 11 -72 -19 -31 -18 -117 -88 -192 -156 -105
-94 -148 -140 -187 -201 -82 -128 -218 -237 -464 -372 -312 -172 -585 -261
-915 -297 -132 -15 -475 -15 -600 0 -264 30 -584 120 -1070 300 -104 39 -140
50 -140 44 0 -10 587 -296 695 -339 147 -58 311 -103 541 -149 244 -48 324
-57 547 -57 231 0 363 17 564 71 74 20 305 109 358 138 215 118 348 218 540
408 77 75 101 94 103 80 2 -10 -2 -29 -9 -42 -19 -37 -4 -39 38 -6 43 34 179
196 206 244 13 25 17 28 17 13 0 -45 -98 -182 -225 -314 -253 -264 -608 -483
-975 -602 -63 -21 -108 -38 -99 -38 23 -1 218 60 314 98 184 74 402 201 585
341 113 87 327 299 390 388 99 138 180 312 180 388 0 18 5 36 10 39 10 6 14
93 5 117 -4 9 -18 12 -45 10 -34 -3 -44 1 -71 27 -25 25 -34 29 -45 20 -8 -7
-18 -9 -21 -5 -4 4 -1 11 7 16 13 8 12 12 -6 30 -30 31 -82 35 -124 11z"/>
<path d="M10530 2620 c-8 -15 -8 -42 0 -97 14 -100 26 -140 59 -188 60 -88 71
-29 32 160 -28 131 -62 179 -91 125z"/>
<path d="M10480 2347 c0 -143 63 -335 159 -482 62 -95 209 -242 306 -304 76
-50 244 -136 251 -129 2 2 -41 25 -94 51 -158 76 -299 197 -410 348 -54 75
-120 210 -129 264 -6 35 -4 37 16 30 27 -8 27 -7 -9 111 -33 109 -69 194 -82
194 -4 0 -8 -38 -8 -83z"/>
<path d="M7684 2296 c11 -9 24 -16 30 -16 12 0 7 5 -24 19 -24 11 -24 11 -6
-3z"/>
<path d="M7776 2292 c-3 -5 3 -21 14 -35 17 -22 24 -24 56 -17 47 11 50 15 22
34 -31 20 -84 31 -92 18z"/>
<path d="M13860 2244 c-125 -73 -202 -122 -335 -215 -157 -109 -309 -202 -470
-286 -77 -40 -137 -73 -132 -73 12 0 234 113 327 167 213 124 734 463 710 463
-3 0 -48 -25 -100 -56z"/>
<path d="M7797 2209 c7 -7 15 -10 18 -7 3 3 -2 9 -12 12 -14 6 -15 5 -6 -5z"/>
<path d="M5030 2164 c0 -21 42 -64 123 -127 124 -96 157 -120 157 -114 0 3
-39 36 -87 73 -49 37 -112 93 -140 123 -29 31 -53 51 -53 45z"/>
<path d="M5323 1912 c4 -6 22 -21 39 -34 17 -12 28 -17 25 -10 -4 6 -22 21
-39 34 -17 12 -28 17 -25 10z"/>
<path d="M5760 1889 c37 -16 478 -126 530 -133 79 -11 -84 39 -258 79 -86 19
-182 42 -213 50 -63 17 -97 19 -59 4z"/>
<path d="M5404 1851 c7 -11 46 -35 46 -28 0 3 -12 12 -26 22 -15 9 -23 12 -20
6z"/>
<path d="M5464 1811 c7 -11 46 -35 46 -28 0 3 -12 12 -26 22 -15 9 -23 12 -20
6z"/>
<path d="M5550 1756 c0 -3 9 -10 20 -16 11 -6 20 -8 20 -6 0 3 -9 10 -20 16
-11 6 -20 8 -20 6z"/>
<path d="M5640 1706 c0 -3 9 -10 20 -16 11 -6 20 -8 20 -6 0 3 -9 10 -20 16
-11 6 -20 8 -20 6z"/>
<path d="M5691 1676 c2 -2 15 -9 29 -15 24 -11 24 -11 6 3 -16 13 -49 24 -35
12z"/>
<path d="M12860 1650 c-19 -11 -30 -19 -25 -19 6 0 26 8 45 19 19 11 31 19 25
19 -5 0 -26 -8 -45 -19z"/>
<path d="M5757 1639 c7 -7 15 -10 18 -7 3 3 -2 9 -12 12 -14 6 -15 5 -6 -5z"/>
<path d="M12730 1595 c-14 -8 -20 -14 -15 -14 6 0 21 6 35 14 14 8 21 14 15
14 -5 0 -21 -6 -35 -14z"/>
<path d="M5960 1546 c0 -2 7 -7 16 -10 8 -3 12 -2 9 4 -6 10 -25 14 -25 6z"/>
<path d="M12020 1540 l-45 -7 40 0 c22 0 54 3 70 7 26 7 27 8 5 7 -14 0 -45
-3 -70 -7z"/>
<path d="M11727 1523 c18 -2 50 -2 70 0 21 2 7 4 -32 4 -38 0 -55 -2 -38 -4z"/>
<path d="M11893 1523 c15 -2 39 -2 55 0 15 2 2 4 -28 4 -30 0 -43 -2 -27 -4z"/>
<path d="M6070 1500 c8 -5 20 -10 25 -10 6 0 3 5 -5 10 -8 5 -19 10 -25 10 -5
0 -3 -5 5 -10z"/>
<path d="M11318 1393 c7 -3 16 -2 19 1 4 3 -2 6 -13 5 -11 0 -14 -3 -6 -6z"/>
<path d="M7708 1353 c7 -3 16 -2 19 1 4 3 -2 6 -13 5 -11 0 -14 -3 -6 -6z"/>
<path d="M11578 1353 c6 -2 18 -2 25 0 6 3 1 5 -13 5 -14 0 -19 -2 -12 -5z"/>
<path d="M11803 1353 c9 -2 25 -2 35 0 9 3 1 5 -18 5 -19 0 -27 -2 -17 -5z"/>
<path d="M7668 1343 c7 -3 16 -2 19 1 4 3 -2 6 -13 5 -11 0 -14 -3 -6 -6z"/>
<path d="M7628 1333 c7 -3 16 -2 19 1 4 3 -2 6 -13 5 -11 0 -14 -3 -6 -6z"/>
<path d="M7488 1313 c7 -3 16 -2 19 1 4 3 -2 6 -13 5 -11 0 -14 -3 -6 -6z"/>
<path d="M6838 1303 c6 -2 18 -2 25 0 6 3 1 5 -13 5 -14 0 -19 -2 -12 -5z"/>
<path d="M7413 1303 c9 -2 25 -2 35 0 9 3 1 5 -18 5 -19 0 -27 -2 -17 -5z"/>
<path d="M6923 1293 c9 -2 25 -2 35 0 9 3 1 5 -18 5 -19 0 -27 -2 -17 -5z"/>
<path d="M7318 1293 c12 -2 32 -2 45 0 12 2 2 4 -23 4 -25 0 -35 -2 -22 -4z"/>
<path d="M7103 1283 c26 -2 67 -2 90 0 23 2 2 3 -48 3 -49 0 -68 -1 -42 -3z"/>
</g>
</svg>
