<?xml version="1.0" standalone="no"?>
<!DOCTYPE svg PUBLIC "-//W3C//DTD SVG 20010904//EN"
 "http://www.w3.org/TR/2001/REC-SVG-20010904/DTD/svg10.dtd">
<svg version="1.0" xmlns="http://www.w3.org/2000/svg"
 width="1280.000000pt" height="720.000000pt" viewBox="0 0 1280.000000 720.000000"
 preserveAspectRatio="xMidYMid meet">

<g transform="translate(0.000000,720.000000) scale(0.100000,-0.100000)"
fill="#000000" stroke="none">
<path d="M6701 4012 c-21 -42 -27 -72 -13 -72 4 1 17 22 29 48 28 59 13 81
-16 24z"/>
<path d="M6067 3988 c-117 -61 -207 -150 -207 -203 0 -25 38 4 57 43 17 36 76
88 177 156 86 57 76 58 -27 4z"/>
<path d="M6243 3913 c9 -2 23 -2 30 0 6 3 -1 5 -18 5 -16 0 -22 -2 -12 -5z"/>
<path d="M6785 3900 c-13 -6 -15 -9 -5 -9 8 0 22 4 30 9 18 12 2 12 -25 0z"/>
<path d="M6085 3871 c-90 -36 -178 -81 -172 -88 3 -3 36 10 74 28 37 17 97 45
133 60 84 37 57 36 -35 0z"/>
<path d="M6250 3881 c-47 -15 -321 -133 -317 -137 14 -14 347 122 347 141 0 3
-1 5 -2 4 -2 0 -14 -4 -28 -8z"/>
<path d="M6223 3837 c-50 -29 -90 -53 -89 -54 2 -2 29 8 61 22 31 14 62 24 68
22 5 -1 -14 -23 -43 -47 -56 -47 -110 -99 -110 -106 0 -2 35 21 78 52 79 58
172 142 172 156 0 19 -52 2 -137 -45z"/>
<path d="M6725 3834 c-44 -19 -111 -60 -150 -90 -38 -31 -110 -83 -160 -116
-63 -42 -82 -59 -62 -55 18 3 27 0 27 -9 0 -9 12 -14 33 -14 17 0 50 -4 72 -9
22 -5 72 -12 110 -15 99 -8 52 9 -76 28 -56 9 -104 17 -106 20 -3 3 27 21 67
41 40 20 84 47 99 61 14 13 32 24 39 24 7 0 15 6 18 14 3 8 41 42 84 76 67 51
101 82 88 79 -2 0 -39 -16 -83 -35z"/>
<path d="M6288 3783 c-66 -68 -203 -239 -221 -276 -26 -54 -57 -162 -57 -200
0 -58 18 -52 30 10 16 84 28 109 67 143 18 17 28 30 21 30 -6 0 0 12 13 28 40
43 110 162 103 174 -4 6 -3 8 3 5 8 -5 47 47 48 63 0 3 10 20 23 38 13 17 22
32 20 32 -2 0 -25 -21 -50 -47z m-14 -48 c-9 -14 -18 -25 -21 -25 -5 0 5 18
20 38 17 22 18 13 1 -13z"/>
<path d="M6404 3658 l-29 -33 33 29 c17 17 32 31 32 33 0 8 -8 1 -36 -29z"/>
<path d="M6310 3529 c-26 -5 -14 -7 44 -8 44 0 77 1 75 3 -9 8 -86 12 -119 5z"/>
<path d="M6248 3513 c7 -3 16 -2 19 1 4 3 -2 6 -13 5 -11 0 -14 -3 -6 -6z"/>
<path d="M6586 3455 c-21 -32 -20 -38 3 -26 10 6 49 19 87 30 l69 20 -71 0
c-66 1 -73 -1 -88 -24z"/>
<path d="M6705 3449 c-17 -8 -16 -9 8 -6 15 3 27 1 27 -3 0 -4 -19 -27 -42
-51 -36 -37 -38 -41 -13 -25 52 33 106 78 101 84 -10 10 -61 10 -81 1z"/>
<path d="M6809 3402 c-124 -133 -181 -236 -180 -329 0 -41 6 -62 20 -76 10
-10 11 -7 6 15 -4 16 -4 36 0 45 7 17 8 16 16 -2 8 -16 8 -15 4 7 -9 48 90
269 134 300 16 12 41 69 30 68 -2 0 -15 -13 -30 -28z"/>
<path d="M6053 3265 c0 -22 2 -30 4 -17 2 12 2 30 0 40 -3 9 -5 -1 -4 -23z"/>
<path d="M6270 3109 c-40 -41 -55 -74 -23 -48 38 30 80 80 72 85 -4 2 -26 -14
-49 -37z"/>
<path d="M6070 2980 c-21 -7 -21 -8 -5 -9 11 0 27 4 35 9 18 11 5 11 -30 0z"/>
</g>
</svg>
